<svg tabindex="-1" viewBox="0 0 420 240"><g transform="translate(60,20)"><rect x="1" width="8" y="180" height="0" fill="#60A5FA" opacity="0.8" style="cursor: pointer;"></rect><rect x="11" width="8" y="116.8" height="63.2" fill="#60A5FA" opacity="0.8" style="cursor: pointer;"></rect><rect x="21" width="8" y="101" height="79" fill="#60A5FA" opacity="0.8" style="cursor: pointer;"></rect><rect x="31" width="8" y="180" height="0" fill="#60A5FA" opacity="0.8" style="cursor: pointer;"></rect><rect x="41" width="8" y="180" height="0" fill="#60A5FA" opacity="0.8" style="cursor: pointer;"></rect><rect x="51" width="8" y="180" height="0" fill="#60A5FA" opacity="0.8" style="cursor: pointer;"></rect><rect x="61" width="8" y="180" height="0" fill="#60A5FA" opacity="0.8" style="cursor: pointer;"></rect><rect x="71" width="8" y="180" height="0" fill="#60A5FA" opacity="0.8" style="cursor: pointer;"></rect><rect x="81" width="8" y="180" height="0" fill="#60A5FA" opacity="0.8" style="cursor: pointer;"></rect><rect x="91" width="8" y="180" height="0" fill="#60A5FA" opacity="0.8" style="cursor: pointer;"></rect><rect x="101" width="8" y="132.6" height="47.400000000000006" fill="#60A5FA" opacity="0.8" style="cursor: pointer;"></rect><rect x="111" width="8" y="180" height="0" fill="#60A5FA" opacity="0.8" style="cursor: pointer;"></rect><rect x="121" width="8" y="132.6" height="47.400000000000006" fill="#60A5FA" opacity="0.8" style="cursor: pointer;"></rect><rect x="131" width="8" y="116.8" height="63.2" fill="#60A5FA" opacity="0.8" style="cursor: pointer;"></rect><rect x="141" width="8" y="180" height="0" fill="#60A5FA" opacity="0.8" style="cursor: pointer;"></rect><rect x="151" width="8" y="180" height="0" fill="#60A5FA" opacity="0.8" style="cursor: pointer;"></rect><rect x="161" width="8" y="180" height="0" fill="#60A5FA" opacity="0.8" style="cursor: pointer;"></rect><rect x="171" width="8" y="180" height="0" fill="#60A5FA" opacity="0.8" style="cursor: pointer;"></rect><rect x="181" width="8" y="180" height="0" fill="#60A5FA" opacity="0.8" style="cursor: pointer;"></rect><rect x="191" width="8" y="180" height="0" fill="#60A5FA" opacity="0.8" style="cursor: pointer;"></rect><rect x="201" width="8" y="180" height="0" fill="#60A5FA" opacity="0.8" style="cursor: pointer;"></rect><rect x="211" width="8" y="180" height="0" fill="#60A5FA" opacity="0.8" style="cursor: pointer;"></rect><rect x="221" width="8" y="180" height="0" fill="#60A5FA" opacity="0.8" style="cursor: pointer;"></rect><rect x="231" width="8" y="180" height="0" fill="#60A5FA" opacity="0.8" style="cursor: pointer;"></rect><rect x="241" width="8" y="180" height="0" fill="#60A5FA" opacity="0.8" style="cursor: pointer;"></rect><rect x="251" width="8" y="180" height="0" fill="#60A5FA" opacity="0.8" style="cursor: pointer;"></rect><rect x="261" width="8" y="180" height="0" fill="#60A5FA" opacity="0.8" style="cursor: pointer;"></rect><rect x="271" width="8" y="180" height="0" fill="#60A5FA" opacity="0.8" style="cursor: pointer;"></rect><rect x="281" width="8" y="116.8" height="63.2" fill="#60A5FA" opacity="0.8" style="cursor: pointer;"></rect><rect x="291" width="8" y="180" height="0" fill="#60A5FA" opacity="0.8" style="cursor: pointer;"></rect><rect x="0" width="10" y="22" height="158" fill="rgba(255, 255, 255, 0)" style="cursor: pointer;"></rect><rect x="10" width="10" y="22" height="158" fill="rgba(255, 255, 255, 0)" style="cursor: pointer;"></rect><rect x="20" width="10" y="22" height="158" fill="rgba(255, 255, 255, 0)" style="cursor: pointer;"></rect><rect x="30" width="10" y="22" height="158" fill="rgba(255, 255, 255, 0)" style="cursor: pointer;"></rect><rect x="40" width="10" y="22" height="158" fill="rgba(255, 255, 255, 0)" style="cursor: pointer;"></rect><rect x="50" width="10" y="22" height="158" fill="rgba(255, 255, 255, 0)" style="cursor: pointer;"></rect><rect x="60" width="10" y="22" height="158" fill="rgba(255, 255, 255, 0)" style="cursor: pointer;"></rect><rect x="70" width="10" y="22" height="158" fill="rgba(255, 255, 255, 0)" style="cursor: pointer;"></rect><rect x="80" width="10" y="22" height="158" fill="rgba(255, 255, 255, 0)" style="cursor: pointer;"></rect><rect x="90" width="10" y="22" height="158" fill="rgba(255, 255, 255, 0)" style="cursor: pointer;"></rect><rect x="100" width="10" y="22" height="158" fill="rgba(255, 255, 255, 0)" style="cursor: pointer;"></rect><rect x="110" width="10" y="22" height="158" fill="rgba(255, 255, 255, 0)" style="cursor: pointer;"></rect><rect x="120" width="10" y="22" height="158" fill="rgba(255, 255, 255, 0)" style="cursor: pointer;"></rect><rect x="130" width="10" y="22" height="158" fill="rgba(255, 255, 255, 0)" style="cursor: pointer;"></rect><rect x="140" width="10" y="22" height="158" fill="rgba(255, 255, 255, 0)" style="cursor: pointer;"></rect><rect x="150" width="10" y="22" height="158" fill="rgba(255, 255, 255, 0)" style="cursor: pointer;"></rect><rect x="160" width="10" y="22" height="158" fill="rgba(255, 255, 255, 0)" style="cursor: pointer;"></rect><rect x="170" width="10" y="22" height="158" fill="rgba(255, 255, 255, 0)" style="cursor: pointer;"></rect><rect x="180" width="10" y="22" height="158" fill="rgba(255, 255, 255, 0)" style="cursor: pointer;"></rect><rect x="190" width="10" y="22" height="158" fill="rgba(255, 255, 255, 0)" style="cursor: pointer;"></rect><rect x="200" width="10" y="22" height="158" fill="rgba(255, 255, 255, 0)" style="cursor: pointer;"></rect><rect x="210" width="10" y="22" height="158" fill="rgba(255, 255, 255, 0)" style="cursor: pointer;"></rect><rect x="220" width="10" y="22" height="158" fill="rgba(255, 255, 255, 0)" style="cursor: pointer;"></rect><rect x="230" width="10" y="22" height="158" fill="rgba(255, 255, 255, 0)" style="cursor: pointer;"></rect><rect x="240" width="10" y="22" height="158" fill="rgba(255, 255, 255, 0)" style="cursor: pointer;"></rect><rect x="250" width="10" y="22" height="158" fill="rgba(255, 255, 255, 0)" style="cursor: pointer;"></rect><rect x="260" width="10" y="22" height="158" fill="rgba(255, 255, 255, 0)" style="cursor: pointer;"></rect><rect x="270" width="10" y="22" height="158" fill="rgba(255, 255, 255, 0)" style="cursor: pointer;"></rect><rect x="280" width="10" y="22" height="158" fill="rgba(255, 255, 255, 0)" style="cursor: pointer;"></rect><rect x="290" width="10" y="22" height="158" fill="rgba(255, 255, 255, 0)" style="cursor: pointer;"></rect><g transform="translate(0,180)" fill="none" font-size="10" font-family="sans-serif" text-anchor="middle" style="color: rgb(156, 163, 175);"><path stroke="currentColor" d="M0,6V0H300V6" style="stroke: rgb(75, 85, 99);"></path><g opacity="1" transform="translate(5,0)"><line stroke="currentColor" y2="6" style="stroke: rgb(75, 85, 99);"></line><text fill="currentColor" y="9" dy="0.71em" style="font-size: 10px;">09/23</text></g><g opacity="1" transform="translate(75,0)"><line stroke="currentColor" y2="6" style="stroke: rgb(75, 85, 99);"></line><text fill="currentColor" y="9" dy="0.71em" style="font-size: 10px;">09/30</text></g><g opacity="1" transform="translate(155.00000000000003,0)"><line stroke="currentColor" y2="6" style="stroke: rgb(75, 85, 99);"></line><text fill="currentColor" y="9" dy="0.71em" style="font-size: 10px;">10/08</text></g><g opacity="1" transform="translate(225,0)"><line stroke="currentColor" y2="6" style="stroke: rgb(75, 85, 99);"></line><text fill="currentColor" y="9" dy="0.71em" style="font-size: 10px;">10/15</text></g><g opacity="1" transform="translate(295,0)"><line stroke="currentColor" y2="6" style="stroke: rgb(75, 85, 99);"></line><text fill="currentColor" y="9" dy="0.71em" style="font-size: 10px;">10/22</text></g></g><path fill="none" stroke="#FBBF24" stroke-width="2" d="M5,180C8.333,133.631,11.667,87.261,15,65.355C18.333,43.449,21.667,32.496,25,32.496C28.333,32.496,31.667,180,35,180C38.333,180,41.667,180,45,180C48.333,180,51.667,180,55,180C58.333,180,61.667,180,65,180C68.333,180,71.667,180,75,180C78.333,180,81.667,180,85,180C88.333,180,91.667,180,95,180C98.333,180,101.667,89.171,105,89.171C108.333,89.171,111.667,180,115,180C118.333,180,121.667,151.601,125,135.139C128.333,118.676,131.667,81.224,135,81.224C138.333,81.224,141.667,180,145,180C148.333,180,151.667,180,155,180C158.333,180,161.667,180,165,180C168.333,180,171.667,180,175,180C178.333,180,181.667,180,185,180C188.333,180,191.667,180,195,180C198.333,180,201.667,180,205,180C208.333,180,211.667,180,215,180C218.333,180,221.667,180,225,180C228.333,180,231.667,180,235,180C238.333,180,241.667,180,245,180C248.333,180,251.667,180,255,180C258.333,180,261.667,180,265,180C268.333,180,271.667,180,275,180C278.333,180,281.667,151.729,285,151.729C288.333,151.729,291.667,165.864,295,180"></path><g fill="none" font-size="10" font-family="sans-serif" text-anchor="end" style="color: rgb(156, 163, 175);"><path stroke="currentColor" d="M-6,180H0V22H-6" style="stroke: rgb(75, 85, 99);"></path><g opacity="1" transform="translate(0,164.2)"><line stroke="currentColor" x2="-6" style="stroke: rgb(75, 85, 99);"></line><text fill="currentColor" x="-9" dy="0.32em" style="font-size: 10px;">1</text></g><g opacity="1" transform="translate(0,148.4)"><line stroke="currentColor" x2="-6" style="stroke: rgb(75, 85, 99);"></line><text fill="currentColor" x="-9" dy="0.32em" style="font-size: 10px;">2</text></g><g opacity="1" transform="translate(0,132.6)"><line stroke="currentColor" x2="-6" style="stroke: rgb(75, 85, 99);"></line><text fill="currentColor" x="-9" dy="0.32em" style="font-size: 10px;">3</text></g><g opacity="1" transform="translate(0,116.8)"><line stroke="currentColor" x2="-6" style="stroke: rgb(75, 85, 99);"></line><text fill="currentColor" x="-9" dy="0.32em" style="font-size: 10px;">4</text></g><g opacity="1" transform="translate(0,101)"><line stroke="currentColor" x2="-6" style="stroke: rgb(75, 85, 99);"></line><text fill="currentColor" x="-9" dy="0.32em" style="font-size: 10px;">5</text></g><g opacity="1" transform="translate(0,85.2)"><line stroke="currentColor" x2="-6" style="stroke: rgb(75, 85, 99);"></line><text fill="currentColor" x="-9" dy="0.32em" style="font-size: 10px;">6</text></g><g opacity="1" transform="translate(0,69.4)"><line stroke="currentColor" x2="-6" style="stroke: rgb(75, 85, 99);"></line><text fill="currentColor" x="-9" dy="0.32em" style="font-size: 10px;">7</text></g><g opacity="1" transform="translate(0,53.599999999999994)"><line stroke="currentColor" x2="-6" style="stroke: rgb(75, 85, 99);"></line><text fill="currentColor" x="-9" dy="0.32em" style="font-size: 10px;">8</text></g><g opacity="1" transform="translate(0,37.8)"><line stroke="currentColor" x2="-6" style="stroke: rgb(75, 85, 99);"></line><text fill="currentColor" x="-9" dy="0.32em" style="font-size: 10px;">9</text></g><g opacity="1" transform="translate(0,22)"><line stroke="currentColor" x2="-6" style="stroke: rgb(75, 85, 99);"></line><text fill="currentColor" x="-9" dy="0.32em" style="font-size: 10px;">10</text></g></g><text transform="rotate(-90)" y="-45" x="-90" style="text-anchor: middle; fill: rgb(156, 163, 175); font-size: 10px;">count</text><g transform="translate(300, 0)" fill="none" font-size="10" font-family="sans-serif" text-anchor="start" style="color: rgb(156, 163, 175);"><path stroke="currentColor" d="M6,180H0V22H6" style="stroke: rgb(75, 85, 99);"></path><g opacity="1" transform="translate(0,127.33333333333334)"><line stroke="currentColor" x2="6" style="stroke: rgb(75, 85, 99);"></line><text fill="currentColor" x="9" dy="0.32em" style="font-size: 10px;">10KB</text></g><g opacity="1" transform="translate(0,74.66666666666667)"><line stroke="currentColor" x2="6" style="stroke: rgb(75, 85, 99);"></line><text fill="currentColor" x="9" dy="0.32em" style="font-size: 10px;">20KB</text></g><g opacity="1" transform="translate(0,22)"><line stroke="currentColor" x2="6" style="stroke: rgb(75, 85, 99);"></line><text fill="currentColor" x="9" dy="0.32em" style="font-size: 10px;">30KB</text></g></g><text transform="rotate(-90)" y="350" x="-90" style="text-anchor: middle; fill: rgb(156, 163, 175); font-size: 10px;">bytes</text><text x="150" y="-5" style="text-anchor: middle; fill: rgb(229, 231, 235); font-size: 14px; font-weight: 600;">Rerank</text><g transform="translate(180, 5)"><rect x="0" y="0" width="12" height="12" fill="#60A5FA" opacity="0.8"></rect><text x="16" y="9" style="font-size: 11px; fill: rgb(156, 163, 175);">count</text><line x1="60" x2="72" y1="6" y2="6" stroke="#FBBF24" stroke-width="2"></line><text x="76" y="9" style="font-size: 11px; fill: rgb(156, 163, 175);">bytes</text></g></g></svg>